<svg xmlns="http://www.w3.org/2000/svg" width="120" height="41" viewBox="0 0 120 41"><g fill-rule="evenodd"><path d="M18.4282105 28.0642295L17.0099649 28.0642295C16.0654035 28.0642295 15.0064561 28.1029795 13.8352281 28.1783659 12.6625965 28.2551614 11.5573333 28.4341159 10.5187368 28.7187523 9.47803509 29.0033886 8.5994386 29.4218886 7.88154386 29.9714341 7.16294737 30.5216841 6.80435088 31.2903432 6.80435088 32.2767068 6.80435088 32.922775 6.94610526 33.4638659 7.22961404 33.899275 7.51312281 34.3360932 7.88154386 34.7059795 8.33487719 35.0089341 8.78891228 35.3132977 9.29908772 35.5317068 9.86610526 35.6641614 10.4331228 35.7973205 11.0001404 35.8628432 11.5671579 35.8628432 13.9110175 35.8628432 15.6394386 35.3034341 16.7552281 34.1839114 17.869614 33.0650932 18.4282105 31.5369341 18.4282105 29.6015477L18.4282105 28.0642295zM15.8766316 8.19675227L10.546807 8.19675227 2.5517193.0000704545455 10.2625965.0000704545455 15.8766316 8.19675227zM18.8247018 36.5462523L18.6548772 36.5462523C17.6717193 38.1032977 16.424 39.2319795 14.9124211 39.9337068 13.4001404 40.6354341 11.7376842 40.9862977 9.92294737 40.9862977 8.67592982 40.9862977 7.4562807 40.8157977 6.26540351 40.4740932 5.07522807 40.1323886 4.0162807 39.6201841 3.09066667 38.9374795 2.16364912 38.2540705 1.41768421 37.4001614.850666667 36.3757523.284350877 35.3506386.000140350877 34.1557295.000140350877 32.7896159.000140350877 31.3086614.264 30.047525.793824561 29.0033886 1.32294737 27.9606614 2.0317193 27.0877295 2.92014035 26.3852977 3.80785965 25.6828659 4.83873684 25.1234568 6.01066667 24.7056614 7.18189474 24.2885705 8.40084211 23.9750477 9.66821053 23.7665023 10.9334737 23.5579568 12.2099649 23.4247977 13.4948772 23.3677295 14.7797895 23.3106614 15.989614 23.2824795 17.1243509 23.2824795L18.8247018 23.2824795 18.8247018 22.5427068C18.8247018 20.8348886 18.2380351 19.554025 17.0675088 18.6994114 15.8955789 17.8462068 14.4022456 17.4192523 12.5882105 17.4192523 11.1510175 17.4192523 9.80926316 17.6750023 8.56154386 18.1872068 7.31452632 18.6994114 6.23733333 19.3926841 5.32996491 20.2656159L1.75803509 16.678775C3.26891228 15.1231386 5.03663158 14.0036159 7.05978947 13.3202068 9.08154386 12.6375023 11.1699649 12.2957977 13.3250526 12.2957977 15.2527719 12.2957977 16.8773333 12.5149114 18.2015439 12.9503205 19.5243509 13.3871386 20.6197895 13.9465477 21.4899649 14.6299568 22.3594386 15.3126614 23.029614 16.1010477 23.5025965 16.9922977 23.9748772 17.8842523 24.3152281 18.7853659 24.5236491 19.6963432 24.7306667 20.6073205 24.8534737 21.4894114 24.8920702 22.3433205 24.9292632 23.1972295 24.9489123 23.9468659 24.9489123 24.591525L24.9489123 40.3035932 18.8247018 40.3035932 18.8247018 36.5462523zM29.0871579 18.7857886L29.0871579 12.978925 34.7004912 12.978925 34.7004912 5.066175 41.5047018 5.066175 41.5047018 12.978925 48.9889123 12.978925 48.9889123 18.7857886 41.5047018 18.7857886 41.5047018 30.7398114C41.5047018 32.1066295 41.7601404 33.1881068 42.2703158 33.9849477 42.7804912 34.7824932 43.7917193 35.1812659 45.3032982 35.1812659 45.9082105 35.1812659 46.5699649 35.1143341 47.2885614 34.981175 48.0057544 34.8487205 48.5734737 34.6310159 48.9889123 34.3266523L48.9889123 40.0764477C48.2710175 40.4181523 47.3917193 40.654175 46.3531228 40.7880386 45.3124211 40.9204932 44.3959298 40.9867205 43.6029474 40.9867205 41.7882105 40.9867205 40.304 40.7880386 39.1517193 40.3892659 37.9980351 39.9911977 37.0906667 39.3838795 36.4303158 38.5673114 35.7685614 37.7514477 35.3145263 36.7369023 35.0689123 35.5222659 34.8232982 34.3076295 34.7004912 32.9034705 34.7004912 31.3090841L34.7004912 18.7857886 29.0871579 18.7857886zM55.7222456 12.9791364L62.5264561 12.9791364 62.5264561 17.30575 62.6394386 17.30575C63.3959298 15.7113636 64.4731228 14.4791136 65.8717193 13.6054773 67.269614 12.7325455 68.8766316 12.2964318 70.6913684 12.2964318 71.106807 12.2964318 71.5138246 12.3337727 71.9103158 12.4098636 72.3075088 12.4866591 72.7131228 12.5810682 73.1299649 12.6945L73.1299649 19.2982045C72.5622456 19.1467273 72.0043509 19.0234318 71.4569825 18.9276136 70.9089123 18.8339091 70.3699649 18.786 69.8408421 18.786 68.2527719 18.786 66.9776842 19.0797955 66.0134737 19.6680909 65.0499649 20.2570909 64.3124211 20.9306364 63.8022456 21.6887273 63.2920702 22.4482273 62.9517193 23.2077273 62.7818947 23.9658182 62.6113684 24.7253182 62.5264561 25.2945909 62.5264561 25.6736364L62.5264561 40.3042273 55.7222456 40.3042273 55.7222456 12.9791364zM77.3957895 4.09834091C77.3957895 2.99784091 77.8014035 2.04036364 78.6147368 1.22379545 79.4280702.407931818 80.4575439 0 81.7052632 0 82.9522807 0 84.0014035.388909091 84.8519298 1.16672727 85.7024561 1.94525 86.1277193 2.92245455 86.1277193 4.09834091 86.1277193 5.27493182 85.7024561 6.25284091 84.8519298 7.02995455 84.0014035 7.80847727 82.9522807 8.19668182 81.7052632 8.19668182 80.4575439 8.19668182 79.4280702 7.78945455 78.6147368 6.97288636 77.8014035 6.15772727 77.3957895 5.19954545 77.3957895 4.09834091"/><polygon points="78.36 40.304 85.164 40.304 85.164 12.979 78.36 12.979"/><path d="M96.5600702,26.6417523 C96.5600702,27.7049114 96.7390175,28.7293205 97.0990175,29.7156841 C97.4569123,30.7034568 97.9860351,31.5756841 98.686386,32.3344795 C99.3846316,33.0939795 100.226035,33.7005932 101.209193,34.1564341 C102.191649,34.6115705 103.307439,34.8391386 104.555158,34.8391386 C105.802175,34.8391386 106.916561,34.6115705 107.899719,34.1564341 C108.882877,33.7005932 109.723579,33.0939795 110.423228,32.3344795 C111.122175,31.5756841 111.651298,30.7034568 112.011298,29.7156841 C112.369193,28.7293205 112.549544,27.7049114 112.549544,26.6417523 C112.549544,25.5800023 112.369193,24.5555932 112.011298,23.5678205 C111.651298,22.5814568 111.122175,21.7092295 110.423228,20.949025 C109.723579,20.1902295 108.882877,19.5829114 107.899719,19.127775 C106.916561,18.6719341 105.802175,18.4443659 104.555158,18.4443659 C103.307439,18.4443659 102.191649,18.6719341 101.209193,19.127775 C100.226035,19.5829114 99.3846316,20.1902295 98.686386,20.949025 C97.9860351,21.7092295 97.4569123,22.5814568 97.0990175,23.5678205 C96.7390175,24.5555932 96.5600702,25.5800023 96.5600702,26.6417523 M89.7558596,26.6417523 C89.7558596,24.4787977 90.1425263,22.514525 90.9179649,20.7503432 C91.692,18.9854568 92.7418246,17.477025 94.0646316,16.2243432 C95.3874386,14.9723659 96.9565614,14.0043205 98.7712982,13.3209114 C100.585333,12.6382068 102.513053,12.2965023 104.555158,12.2965023 C106.59586,12.2965023 108.524281,12.6382068 110.338316,13.3209114 C112.153053,14.0043205 113.720772,14.9723659 115.044281,16.2243432 C116.367789,17.477025 117.416211,18.9854568 118.190947,20.7503432 C118.965684,22.514525 119.353053,24.4787977 119.353053,26.6417523 C119.353053,28.8047068 118.965684,30.7689795 118.190947,32.5338659 C117.416211,34.2987523 116.367789,35.8071841 115.044281,37.0598659 C113.720772,38.3118432 112.153053,39.2791841 110.338316,39.9625932 C108.524281,40.6460023 106.59586,40.9870023 104.555158,40.9870023 C102.513053,40.9870023 100.585333,40.6460023 98.7712982,39.9625932 C96.9565614,39.2791841 95.3874386,38.3118432 94.0646316,37.0598659 C92.7418246,35.8071841 91.692,34.2987523 90.9179649,32.5338659 C90.1425263,30.7689795 89.7558596,28.8047068 89.7558596,26.6417523"/></g></svg>